<?xml version="1.0" encoding="UTF-8"?>
<svg id="_Слой_1" data-name="Слой_1" xmlns="http://www.w3.org/2000/svg" version="1.1" viewBox="0 0 612 612">
  <!-- Generator: Adobe Illustrator 30.5.1, SVG Export Plug-In . SVG Version: 2.1.4 Build 3)  -->
  <defs>
    <style>
      .st0 {
        display: none;
        fill: #fff;
      }
    </style>
  </defs>
  <path class="st0" d="M0,0h612v612H0V0ZM473.6,394.19c42.86-13.07,102.53-39.18,121.55-81.91,7.02-15.75,7.22-32.98.41-48.83-13.63-31.75-49.64-53.91-80.43-67.58-41.02-18.22-88.88-28.99-133.53-34.14-51.48-5.94-103.45-5.83-154.89.41-43.27,5.25-89.21,15.78-129.04,33.32-30.38,13.38-65.32,34.69-79.89,65.3-7.75,16.28-8.12,34.48-.82,51,13.06,29.55,45.22,50.46,73.78,64,36.14,17.14,78.13,27.91,117.72,34.06,84.17,13.07,183.42,9.29,265.14-15.62Z"/>
  <path d="M473.6,394.19c-81.72,24.91-180.97,28.69-265.14,15.62-39.59-6.15-81.58-16.92-117.72-34.06-28.56-13.54-60.73-34.45-73.78-64-7.3-16.51-6.93-34.71.82-51,14.57-30.62,49.52-51.92,79.89-65.3,39.83-17.54,85.77-28.08,129.04-33.32,51.45-6.24,103.42-6.35,154.89-.41,44.65,5.15,92.51,15.93,133.53,34.14,30.79,13.67,66.8,35.83,80.43,67.58,6.8,15.85,6.6,33.08-.41,48.83-19.03,42.73-78.69,68.85-121.55,81.91ZM60.56,232.39c-8.11,7.13-15.18,14.81-20.73,24.28h228.49s33.25-90.72,33.25-90.72c-24.09.11-47.93,1.68-72.04,4.69-19.82,2.53-39.13,6.04-58.51,10.84-29.66,7.46-58.56,17.56-85.02,32.89-9.06,5.37-17.34,11.03-25.45,18.02ZM541.42,224.43c-22.81-16.28-48.27-27.17-74.73-35.64-21.87-6.96-44.08-11.94-66.81-15.61-31.24-4.97-62.51-7.28-94.45-7.26l33.92,90.75h232.87c-2.81-5.15-6.2-9.25-9.76-13.48-6.38-7.02-13.18-13.02-21.03-18.75ZM208.91,288.32l1.6-2.98c.61-1.14.69-3.62.02-4.74l-1.58-2.63c-.31-.51-1.22-1.54-1.68-1.92l-2.47-2.02c-4.64-3.06-9.89-4.65-15.3-5.89l-5.5-1.26-4.6-.83-3.85-.42-9.1-1.16c-2.83-.36-5.63-.88-8.55-.66s-5.74-.59-8.61-.65l-15.54-.32-89.2-.02-4.33.83c-1.08.21-2.66,1.16-2.66,2.72l-.03,32.5c0,.72.77,2.37,1.4,2.65l3.63,1.45,101.39-.03,7.79-.81c5.49.1,10.58-.26,15.95-1.1l4.77-.32,5.77-.83,6.91-1.23,3.66-.78,3.56-.92,4.11-1.17c3.8-1.08,7.59-2.83,10.83-5.09l1.6-2.38ZM376.5,289.7l-4.2-1.4h-79.78s0-22.04,0-22.04c0-1.23-.97-2.22-2.08-2.36l-2.81-1.08h-53.38c-2.77,0-5.01.82-6.97,2.84v33.98c.79,1.29,2.73,3.29,4.69,3.29l140.79.03,3.9-1.26,1.55-2.41.03-7.37-1.74-2.21ZM567.8,295.12l-7.54-2.88-6.22-2.38-4.4-1.73-7.76-2.29,4.81-1.5,3.19-.59c4.23-.79,9.93-3.01,12.32-6.48.8-1.15.6-3.36-.08-4.2-2.55-3.2-6.05-4.71-9.64-5.69l-3.25-.89-4.92-.89-7.39-1.09c-3.13-.46-6.17-.9-9.38-.68l-7.04-.64-17.94-.34-104.72-.02-2.87,1.03c-1.07.38-2.06,1.09-2.05,2.42l.18,25.04.28,9.87,4.17,1.78h56.21c1.5-.96,4.23-1.58,4.26-3.3l.17-10.22c3.96-.66,7.76-.2,11.65.56,2.77.44,5.39,1.12,8.11,2.11l30.03,10.86h62.66c1.62-1.05,3.08-.68,5.93-2.35.36-.21.46-1.47.16-1.74-.24-.22-.81-.63-1.14-.76l-2.67-1.04-5.14-1.97ZM70.48,349.78l113.46-42.58-149.19-.07c3.94,10.56,10.31,19.15,17.63,27.05,5.58,5.74,11.66,10.95,18.1,15.6ZM560.92,333.24c7.04-7.76,12.88-16,16.63-26.11l-153.9.05,116.72,43.89c7.42-5.46,14.27-11.06,20.54-17.82ZM459.96,387.95c15.09-4.52,29.49-9.72,43.81-16.19,11.78-5.4,23.11-11.44,34.05-18.98l-233.87-39.76-230.44,38.92c10.99,7.73,22.33,13.82,34.34,19.38,13.87,6.31,27.83,11.47,42.45,15.92,46.99,14.16,97.62,20.63,146.73,21.31,54.72.75,110.43-5.13,162.93-20.59ZM285.38,409.93l-.08-.69-3.86,3.2c-.46-.13-.74-.2-.73,0,0,.27.08,1.18.24,1.06l.81-.62,3.62-2.96ZM316.92,414.56l2.85-2.81c.79-.78,1.43-1.62,1.59-2.58l-5.06,5.24c-.21.22-.48.49-.36.64.08.1.45.43.46.43,0,0,.43-.82.53-.91ZM301.74,414.64c.8-.34,1.8-1.25,1.89-1.88s-.3-1.89-.52-2.12c-.41,1.55-.79,2.66-1.37,3.99ZM293.11,413.43l.62-2.05c-.81.48-.94,1.35-.62,2.05ZM330.17,415.18c1.15-1.03,1.96-1.95,2.86-3.23-1.32.64-2.56,1.62-2.86,3.23ZM325.05,414.24l1.71-1.82-.34-.35-2.53,2.44c.02.16.63,1.17.67.97s.35-1.1.49-1.25ZM327.3,415.07l2.33-2.78c-1.14.09-2.56,1.34-2.33,2.78ZM276.76,414.53l1.46-1.93c-.71.07-2.2.93-2.34,1.6-.05.22.47.75.66.88.13.08.22-.22.22-.54ZM307.61,414.64l1.13-.82c.27-.2-.3-1.1-.53-1.22l-.6,2.04ZM310.77,414.65l1.72-1.82-.34-.35-2.53,2.44c.03.16.63,1.17.67.97s.35-1.09.49-1.24ZM312.84,414.75l.3.75,2.64-2.75-.56-.12-2.37,2.12ZM283.4,415.35l1.06-2.47-2.32,1.55c.83.61,1.41,1.04,1.25.92ZM321.27,412.9l-1.41,1c-.25.18-.49,1.04-.22,1.18l.85.43.79-2.61ZM280.27,413.93l-.95.05-.26.88c-.05.17.54.36.62.21l.58-1.14ZM304.49,415.39c.08-1.6.08-1.73-.02-1.17-.68.5-.97.75-.81.82l.82.35Z"/>
  <path class="st0" d="M459.96,387.95c-52.5,15.45-108.21,21.34-162.93,20.59-49.11-.68-99.74-7.14-146.73-21.31-14.62-4.44-28.58-9.61-42.45-15.92-12.01-5.56-23.35-11.65-34.34-19.38l230.44-38.92,233.87,39.76c-10.93,7.54-22.26,13.58-34.05,18.98-14.32,6.48-28.72,11.68-43.81,16.19Z"/>
  <path class="st0" d="M541.42,224.43c7.85,5.73,14.65,11.73,21.03,18.75,3.57,4.23,6.96,8.33,9.76,13.48h-232.87s-33.92-90.75-33.92-90.75c31.94-.02,63.21,2.29,94.45,7.26,22.73,3.68,44.94,8.65,66.81,15.61,26.46,8.48,51.92,19.37,74.73,35.64Z"/>
  <path class="st0" d="M60.56,232.39c8.11-6.99,16.4-12.65,25.45-18.02,26.46-15.33,55.35-25.42,85.02-32.89,19.37-4.8,38.69-8.31,58.51-10.84,24.11-3.01,47.96-4.59,72.04-4.69l-33.25,90.71H39.83c5.55-9.47,12.62-17.14,20.73-24.27Z"/>
  <path class="st0" d="M560.92,333.24c-6.27,6.76-13.13,12.37-20.54,17.82l-116.72-43.89,153.9-.05c-3.75,10.11-9.59,18.35-16.63,26.11Z"/>
  <path class="st0" d="M70.48,349.78c-6.44-4.64-12.51-9.86-18.1-15.6-7.32-7.9-13.69-16.49-17.63-27.05l149.19.07-113.46,42.58Z"/>
  <path class="st0" d="M567.8,295.12l5.14,1.97,2.67,1.04c.33.13.91.54,1.14.76.3.27.2,1.53-.16,1.74-2.85,1.67-4.31,1.3-5.93,2.34h-62.66s-30.03-10.85-30.03-10.85c-2.72-.98-5.34-1.67-8.11-2.11-3.9-.75-7.69-1.22-11.65-.56l-.17,10.22c-.03,1.71-2.75,2.34-4.26,3.28h-56.21s-4.17-1.77-4.17-1.77l-.28-9.87-.18-25.04c0-1.33.98-2.04,2.05-2.42l2.87-1.03,104.72.02,17.94.34,7.04.64c3.21-.22,6.25.21,9.38.68l7.39,1.09,4.92.89,3.25.89c3.58.98,7.09,2.48,9.64,5.69.67.85.87,3.05.08,4.2-2.39,3.46-8.09,5.69-12.32,6.48l-3.19.59-4.81,1.5,7.76,2.29,4.4,1.73,6.22,2.38,7.54,2.88ZM540.44,288.42l-3.2-.76-3.98-1.05-4.02-.54c-2-.27-3.71-.74-5.77-.67-1.34.05-2.45.13-3.39-.71,3.24-.66,5.99-.45,9.16-.27,1.35.08,3.07-.78,4.52-.88l5.08-.34,3.41-.65,3.54-.78c4.2-.92,8.27-2.04,11.61-4.83l-.02-3.9c-2.19-1.23-4.55-2.81-7.05-3.37l-3.59-.81-4.76-1.11-4.51-.43c-2.05-.2-3.78-.76-5.83-.69-3.2.12-5.93.04-9.11-.84h-124.73s.02,34.32.02,34.32h55.43s.09-13.69.09-13.69c4.58-.26,9.25-.36,13.8.66l5.36.44,4.19,1.06,6.33,2.21,6,2.15,5.32,1.96,5.33,1.96,5.64,2.07,3.18,1.18,62.53.02c.21-.26.54-.68.57-.68.04,0-.51-.11-.72-.18l-4.89-1.6-5.91-2.26-5.29-2.03-7.39-2.85-3.02-1.04-3.92-1.06Z"/>
  <path class="st0" d="M208.91,288.32l-1.6,2.38c-3.24,2.25-7.03,4.01-10.83,5.09l-4.11,1.17-3.56.92-3.66.78-6.91,1.23-5.77.83-4.77.32c-5.38.83-10.46,1.2-15.95,1.1l-7.79.81-101.39.03-3.63-1.45c-.63-.28-1.4-1.94-1.4-2.65l.03-32.5c0-1.56,1.59-2.51,2.66-2.72l4.33-.83,89.2.02,15.54.32c2.87.06,5.64.87,8.61.65s5.73.3,8.55.66l9.1,1.16,3.85.42,4.6.83,5.5,1.26c5.4,1.23,10.65,2.83,15.3,5.89l2.47,2.02c.47.38,1.38,1.41,1.68,1.92l1.58,2.63c.67,1.12.59,3.6-.02,4.74l-1.6,2.98ZM205.71,285.59c.71-1.05.29-3.96.2-5.17l-1.49-1.52-1.53-1.73c-1.96-2.22-4.41-3.17-7.05-4.09l-5.18-1.8-3.6-.92-4.67-1.06-5.71-.85c-2.16-.32-4.21-1.2-6.56-.93-1.55.17-3.11-.62-4.55-.66l-9.28-.27-4.6-.8-108.77-.02c-.47,0-1.34.37-1.26.66l.33,1.14.04,32.54,106.77-.02,4.18-.81c3.65-.19,7.37.14,10.92-.28l9.52-1.15,4.46-.64c1.52-.22,2.92-.48,4.31-.76l5.18-1.03,3.61-.9,2.91-.86c3.58-1.06,7.48-2.54,10.03-5.41l1.79-2.66Z"/>
  <path class="st0" d="M376.5,289.7l1.74,2.21-.03,7.37-1.55,2.41-3.9,1.26-140.79-.03c-1.95,0-3.89-2-4.67-3.29v-33.98c1.95-2.01,4.19-2.83,6.96-2.83h53.38s2.81,1.07,2.81,1.07c1.11.14,2.08,1.14,2.08,2.36v22.03s79.78.01,79.78.01l4.2,1.4ZM373.7,291.18l-86.01-.03-.04-25.37h-52.93c-.8-.46-2.56-.04-2.56.88l.04,33.45h141.41s.09-8.94.09-8.94Z"/>
  <path class="st0" d="M316.92,414.56c-.1.1-.53.91-.53.91,0,0-.38-.33-.46-.43-.12-.15.15-.42.36-.64l5.06-5.24c-.16.96-.8,1.8-1.59,2.58l-2.85,2.81Z"/>
  <path class="st0" d="M301.74,414.64c.58-1.33.96-2.44,1.37-3.99.23.23.61,1.48.52,2.12s-1.09,1.54-1.89,1.88Z"/>
  <path class="st0" d="M330.17,415.18c.3-1.61,1.54-2.59,2.86-3.23-.9,1.28-1.71,2.2-2.86,3.23Z"/>
  <path class="st0" d="M325.05,414.24c-.14.15-.45,1.05-.49,1.25s-.64-.81-.67-.97l2.53-2.44.34.35-1.71,1.82Z"/>
  <path class="st0" d="M276.76,414.53c0,.32-.09.62-.22.54-.19-.12-.7-.66-.66-.88.14-.67,1.63-1.52,2.34-1.6l-1.46,1.93Z"/>
  <path class="st0" d="M310.77,414.65c-.14.15-.45,1.04-.49,1.24s-.64-.81-.67-.97l2.53-2.44.34.35-1.72,1.82Z"/>
  <polygon class="st0" points="312.84 414.75 315.21 412.64 315.78 412.75 313.14 415.5 312.84 414.75"/>
  <path class="st0" d="M321.27,412.9l-.79,2.61-.85-.43c-.27-.14-.03-1,.22-1.18l1.41-1Z"/>
  <path class="st0" d="M327.3,415.07c-.23-1.44,1.19-2.69,2.33-2.78l-2.33,2.78Z"/>
  <path class="st0" d="M285.38,409.93l-3.62,2.96-.81.62c-.16.13-.23-.79-.24-1.06,0-.2.27-.13.73,0l3.86-3.2.08.69Z"/>
  <path class="st0" d="M283.4,415.35c.16.12-.42-.31-1.25-.92l2.32-1.55-1.06,2.47Z"/>
  <path class="st0" d="M307.61,414.64l.6-2.04c.23.12.8,1.02.53,1.22l-1.13.82Z"/>
  <path class="st0" d="M293.11,413.43c-.32-.7-.18-1.58.62-2.05l-.62,2.05Z"/>
  <path class="st0" d="M280.27,413.93l-.58,1.14c-.08.16-.68-.04-.62-.21l.26-.88.95-.05Z"/>
  <path class="st0" d="M304.49,415.39l-.82-.35c-.16-.07.13-.31.81-.82.09-.56.1-.44.02,1.17Z"/>
  <path d="M540.44,288.42l3.92,1.06,3.02,1.04,7.39,2.85,5.29,2.03,5.91,2.26,4.89,1.6c.21.07.76.19.72.18-.03,0-.36.42-.57.68l-62.53-.02-3.18-1.18-5.64-2.07-5.33-1.96-5.32-1.96-6-2.15-6.33-2.21-4.19-1.06-5.36-.44c-4.56-1.03-9.22-.92-13.8-.66l-.09,13.69h-55.43s-.02-34.33-.02-34.33h124.73c3.19.9,5.91.98,9.11.86,2.05-.08,3.79.49,5.83.69l4.51.43,4.76,1.11,3.59.81c2.49.56,4.86,2.14,7.05,3.37l.02,3.9c-3.34,2.8-7.41,3.91-11.61,4.83l-3.54.78-3.41.65-5.08.34c-1.45.1-3.17.96-4.52.88-3.17-.18-5.92-.39-9.16.27.94.84,2.05.76,3.39.71,2.06-.08,3.77.4,5.77.67l4.02.54,3.98,1.05,3.2.76Z"/>
  <path d="M205.71,285.59l-1.79,2.66c-2.55,2.87-6.45,4.35-10.03,5.41l-2.91.86-3.61.9-5.18,1.03c-1.39.28-2.79.54-4.31.76l-4.46.64-9.52,1.15c-3.55.43-7.27.09-10.92.28l-4.18.81-106.77.02-.04-32.54-.33-1.14c-.09-.3.79-.66,1.26-.66l108.77.02,4.6.8,9.28.27c1.44.04,3,.84,4.55.66,2.35-.26,4.4.61,6.56.93l5.71.85,4.67,1.06,3.6.92,5.18,1.8c2.64.92,5.09,1.86,7.05,4.09l1.53,1.73,1.49,1.52c.09,1.21.5,4.12-.2,5.17Z"/>
  <path d="M373.7,291.18l-.09,8.93h-141.41s-.04-33.45-.04-33.45c0-.92,1.76-1.34,2.56-.88h52.93s.04,25.37.04,25.37l86.01.03Z"/>
</svg>