<?xml version="1.0" encoding="UTF-8"?>
<svg id="_Слой_1" data-name="Слой_1" xmlns="http://www.w3.org/2000/svg" version="1.1" viewBox="0 0 1920 1080">
  <!-- Generator: Adobe Illustrator 30.0.0, SVG Export Plug-In . SVG Version: 2.1.1 Build 123)  -->
  <defs>
    <style>
      .st0 {
        display: none;
        fill: #fff;
      }
    </style>
  </defs>
  <path class="st0" d="M1852.93-352.93v1785.86H67.07V-352.93h1785.86ZM1556.68,410.91c-3.55-18.3-9.97-38.69-19.62-54.75-9.37-15.62-23.97-15.3-36.87-3.51-22.58,20.63-13.89,56.29-.63,79.67-18.66,4.35-52.94,22.79-55.81,43.54-1.43,10.33.94,21.75,10.2,27.66,19.28,12.31,50.13-8.32,69.82-12.8,8.87,14.03,5.97,34.02,19.91,45.62,18.61,15.48,45.35-3.85,47.48-24.91,1.72-16.95-5.31-28.49-10.7-43.41,24-5.11,64.01-11.07,59.18-44.32-3.18-21.86-25.78-30.25-45.48-28.26-13.87,1.4-25.34,9.69-37.48,15.45ZM826.16,538.21c15.37-51.48,20.01-107.92,9.13-160.84-4.63-22.53-10.31-39.21-37.68-28.92-39.64,14.9-49.56,76.17-51.24,112.98l4.81,51.79c-19.14-17-42.89-16.24-63.44-2.18-43.91,30.05-48.47,129.82-29.93,174.68,4.02,9.73,15.23,28.29,25.77,31.34,23.19,6.72,54.49-26.45,67.03-43.24,2.44-.01,8.53,8.85,11.27,11.33,39.05,35.37,93.54,37.73,131.48-.62,9.73-9.84,15.09-25.85,21.39-37.9,7.36,2.81,15.1,4.97,22.73,6.88,27.04,6.77,80.88,19.91,104.61,2.47,2.62-1.92,6.78-7.95,8.94-8.91,2.7-1.2,6.36-.38,9.58-1.13,12.44-2.92,15.35-14.42,16.59-25.65,1.68-.28,1.73,2.11,2.02,3.3,6.11,25.24,9.56,44.12,32.57,60.24,19.35,13.55,97.49,33.61,120.64,31.62,20.17-1.74,36.21-16.11,41.23-35.51,26.23,1.77,53.8,4.22,74.2-15.61,15.37,36.6,56.19,37.95,66.64-3.58,3.2-12.73,3.87-25.34,8.07-38.34,1.73-5.36,9.3-24.35,13.26-27.19,6.2-4.45,19.05,3.86,26.39,4.71,22.84,2.65,42.93-13.79,36.79-37.98-5.19-20.43-46.38-26.15-63.68-22.58,1.02-13.43-.93-27.4-12.01-36.18-31.88-25.27-60.46,23.71-65.38,50.44-15.34-4.3-28.67,3.12-38.64,14.28-7.34,8.23-14.85,25.74-25.79,28.97-9.66,2.85-12.05-5.59-9.93-13.54,1.87-7,15.8-19.68,20.63-26.95,32.79-49.26-20-83.28-63.23-50.14-30.69,23.52-31.68,65.52-30.54,100.93-19.53-2.42-47.2,8.6-62.5-7.12l-12.46-17.87c36.19.52,86.61-24.38,60.44-66.99-20.74-33.76-64.93-38.59-88.99-5.59,9.06-37.61,26.97-81.48,21.27-120.62-3.49-23.93-13.03-30.83-37.34-28.1-16.43,1.85-19.46,14.97-22.61,28.55-6.59,28.36-1.41,53.73-5.72,81.14-3.8,24.17-14.59,48.77-21.06,72.35l-20.79-33.32c-14.65-15.03-32.9-25.16-54.13-17.22-34.86,13.05-23.33,58.16,2.46,74.84,12.54,8.11,53.51,18.71,47.26,39.13-4.11,13.44-29.56-8.68-34.29-12.85-23.45-20.65-55.21-63.83-89.82-38.87-17.18-16.74-42.9-23.01-66.01-16.47ZM457.33,538.21c-15.17-44.66-21.19-101.38-65.07-128.28-36.22-22.21-85.68,19.46-70.43,59.72,11.1,29.29,61.86,32.5,75.71,67.07,3.87,9.66,4.43,20.18,7.42,30.04-.93.79-10.59-5.99-12.64-6.98-68.35-33.2-116.31,13.54-111.09,83.72,3.93,52.75,46.81,88.75,98.16,92.21,42.88,2.89,80.69-25.34,98.16-63.04l2.44.73c13.23,31.95,58.78,52.33,85.57,23.65,14.97-16.03,12.08-52.38,6.8-72.22-4.86-18.28-17.56-28.64-32.42-39.03l-.57-1.73c13.17-25.75,34.68-60.38-6.19-72.36-13.89-4.07-21.89-4.28-35.41.95-14.37,5.55-29.37,14.94-40.46,25.56Z"/>
  <path d="M826.16,538.21c23.11-6.54,48.83-.27,66.01,16.47,34.61-24.95,66.37,18.22,89.82,38.87,4.73,4.16,30.17,26.29,34.29,12.85,6.25-20.42-34.71-31.02-47.26-39.13-25.79-16.68-37.32-61.79-2.46-74.84,21.23-7.95,39.49,2.19,54.13,17.22l20.79,33.32c6.47-23.58,17.25-48.18,21.06-72.35,4.31-27.41-.87-52.77,5.72-81.14,3.16-13.58,6.18-26.7,22.61-28.55,24.32-2.73,33.86,4.18,37.34,28.1,5.7,39.14-12.21,83.01-21.27,120.62,24.05-33,68.25-28.17,88.99,5.59,26.17,42.62-24.25,67.51-60.44,66.99l12.46,17.87c15.3,15.72,42.96,4.7,62.5,7.12-1.14-35.41-.15-77.41,30.54-100.93,43.23-33.14,96.02.88,63.23,50.14-4.84,7.26-18.76,19.95-20.63,26.95-2.13,7.95.27,16.39,9.93,13.54,10.93-3.23,18.45-20.75,25.79-28.97,9.96-11.17,23.3-18.58,38.64-14.28,4.91-26.74,33.5-75.71,65.38-50.44,11.08,8.78,13.03,22.75,12.01,36.18,17.3-3.57,58.49,2.15,63.68,22.58,6.14,24.19-13.94,40.63-36.79,37.98-7.33-.85-20.18-9.17-26.39-4.71-3.96,2.84-11.53,21.84-13.26,27.19-4.19,13-4.86,25.61-8.07,38.34-10.45,41.53-51.27,40.18-66.64,3.58-20.4,19.83-47.97,17.38-74.2,15.61-5.02,19.4-21.06,33.77-41.23,35.51-23.15,1.99-101.29-18.06-120.64-31.62-23.01-16.12-26.47-35-32.57-60.24-.29-1.19-.35-3.58-2.02-3.3-1.25,11.22-4.16,22.73-16.59,25.65-3.22.75-6.88-.06-9.58,1.13-2.16.96-6.33,6.98-8.94,8.91-23.73,17.44-77.56,4.3-104.61-2.47-7.63-1.91-15.37-4.08-22.73-6.88-6.3,12.05-11.66,28.06-21.39,37.9-37.94,38.35-92.43,35.99-131.48.62-2.74-2.48-8.83-11.35-11.27-11.33-12.54,16.78-43.84,49.96-67.03,43.24-10.54-3.05-21.75-21.62-25.77-31.34-18.54-44.86-13.99-144.62,29.93-174.68,20.55-14.06,44.3-14.82,63.44,2.18l-4.81-51.79c1.68-36.81,11.6-98.08,51.24-112.98,27.37-10.29,33.05,6.38,37.68,28.92,10.88,52.92,6.24,109.36-9.13,160.84ZM809.22,357.66c-33.26,3.93-47.94,59.54-49.75,87.11-2.08,31.74,8.1,68.55,3.49,97.48-1.13,7.07-3.11,11.77-11.21,7.89-3.77-19.03-9.9-38.52-33.22-38.13-63.81,1.07-67.68,131.24-48.1,173,3.27,6.97,12.24,21.27,20.63,21.03,24.76-.72,62.28-54.33,74.9-73.93,41.88-65,64.28-121.66,62.57-200.39-.43-19.68-1.61-48.14-8.4-66.55-2.32-6.3-3.76-8.35-10.92-7.5ZM1056.97,634.58c3.58-.03,5.68-3.94,6.83-6.84,7.36-18.72,11.81-48.91,17.3-69.55,10.23-38.5,25.95-82.37,32.65-120.83,2.73-15.66,5.93-42.01.39-56.85-3.54-9.49-14.14-9.01-23.2-7.6-9.74,1.52-12.18,23.37-13.38,31.83-3.26,22.9.43,45.64-3.1,68.29-4.56,29.25-18.61,59.94-26.87,88.39,6.41,23.66,13.22,48.43,9.37,73.16ZM1142.32,499.24c-22.33,3.82-43.75,42.83-49.06,62.78-8.98,33.78-5.75,88.55,24.49,111.13,16.58,12.38,81.48,28.76,102.96,30.29,44.04,3.15,56.41-45.13,26-70.02-35.11-28.73-78.4.18-104.7-22.6-7.29-6.31-16.24-24.57-25.02-26.14-4.47-.8-9.22,1.81-11.57-4-1.05-2.6-.11-5.24,2.06-6.84,4.41-3.25,26.8-2.65,34.41-3.66,24.56-3.26,63.59-17.02,44.07-48.52-8.56-13.82-26.92-25.29-43.63-22.43ZM901.53,624.65c13.74,12.55,42.03,18.68,60.24,22.45,25.5,5.28,77.79,16.67,83.96-19.58,4.88-28.67-15.61-92.47-36.96-113.09-26.47-25.56-65.78-9.92-47.43,27.2,12.09,24.45,45.52,22.68,61.61,44.28,9.53,12.79,7.73,35.15-10.75,36.73-22.75,1.95-54.64-38.84-72.63-52.1-9.69-7.14-32.83-19.33-41.36-4.88-1.38,2.34-8.54,21.7-8.9,24.41-1.61,12.07,3.22,26.35,12.22,34.58ZM1223.81,609.32c19.92,5.1,42.03,19.54,48.57,40.08,1.93,6.06,1.71,12.06,3.43,17.99,22.77,3.26,47.23,4.41,64.96-12.54,16.16-15.44,39.32-69.11,18.45-86.34-22.78-18.81-40.42,28.12-56.79,37.29-19.15,10.74-34.73-2.89-30.76-23.62,2.62-13.66,20.74-26.34,27.04-39.59,14.12-29.7-13.1-45.7-39.51-33.56-36.58,16.81-40.18,65.37-35.39,100.28ZM1401.69,508.74c-15.96,2.75-31.14,36.83-32.91,51.58,20.86,24.79,7.36,58.46-5.43,83.81-5.22,10.35-7.94,8.01-1.64,20.63,9.18,18.39,29.54,21.47,38.54.8,4.48-10.28,4.43-21.61,6.88-32.38,2.82-12.41,14.08-47.82,27.85-50.67s23.67,7.75,37.52,5.39c14.37-2.45,21.79-20.65,9.6-29.26-9.52-6.72-36.78-10.8-47.61-6.37-5.27,2.15-9.99,9.4-15.3,3.84-4.12-4.31,3.6-15.21,4.2-22.07,1.17-13.42-6.61-27.9-21.71-25.3ZM902.09,640.75c-17.54-10.49-27.27-32.42-24.48-52.85,1.25-9.14,10.9-18.67,4.99-25.84-11.1-13.48-43.07-18.38-58.31-10.82-5.96,2.96-8.09,14.82-11.03,21.09-9.57,20.37-21.19,40.62-33.03,59.78-2.91,4.71-21.23,30.07-20.59,32.58,23.4,29.49,67.56,47.72,102.56,27.97,19.43-10.96,36.35-29.49,39.89-51.91Z"/>
  <path d="M457.33,538.21c11.09-10.61,26.09-20,40.46-25.56,13.52-5.22,21.52-5.02,35.41-.95,40.87,11.98,19.36,46.61,6.19,72.36l.57,1.73c14.86,10.38,27.55,20.74,32.42,39.03,5.28,19.84,8.17,56.19-6.8,72.22-26.79,28.68-72.34,8.3-85.57-23.65l-2.44-.73c-17.47,37.69-55.28,65.93-98.16,63.04-51.34-3.46-94.23-39.46-98.16-92.21-5.23-70.18,42.74-116.92,111.09-83.72,2.05,1,11.71,7.77,12.64,6.98-3-9.86-3.55-20.39-7.42-30.04-13.85-34.57-64.6-37.78-75.71-67.07-15.26-40.25,34.21-81.92,70.43-59.72,43.87,26.9,49.9,83.63,65.07,128.28ZM339.93,475.94c8.46,7.82,28.75,15.68,39.94,23.71,8.04,5.76,17.77,13.71,23.2,22.01,11.67,17.85,12.45,43.97,17.15,64.45-6.36,11.89-11.54-.11-16.43-4.49-45.54-40.74-106.34-21.61-110.66,41.68-3.77,55.12,31.12,96.29,86.4,100.37,41.8,3.08,77.02-27.32,90.82-64.83-13.58-56.65-21.99-114.69-40.38-170.02-9.15-27.54-18.86-55.67-46.82-69.78-31.67-15.98-70.43,31.76-43.22,56.9ZM511.77,520.67c-9.05,1.12-34.05,14.64-40.76,21.13-3.19,3.08-9.71,12.74-9.77,17,11.54,39.05,14.23,124.82,61.51,138.26,21.51,6.12,39.74-6.19,41.69-28.51,1.24-14.2-1.28-40.89-9.04-52.91-7.17-11.1-20.91-16.45-28.51-25.02-5.47-6.17,5.18-17.69,8.22-23.98,3.83-7.93,12.37-25.77,9.15-33.85-3.41-8.57-24.25-13.12-32.48-12.11Z"/>
  <path d="M1556.68,410.91c12.14-5.77,23.61-14.05,37.48-15.45,19.7-1.99,42.31,6.39,45.48,28.26,4.83,33.24-35.18,39.2-59.18,44.32,5.39,14.91,12.42,26.45,10.7,43.41-2.14,21.06-28.88,40.39-47.48,24.91-13.94-11.59-11.04-31.59-19.91-45.62-19.69,4.48-50.54,25.11-69.82,12.8-9.26-5.92-11.63-17.33-10.2-27.66,2.87-20.76,37.15-39.19,55.81-43.54-13.26-23.38-21.95-59.04.63-79.67,12.9-11.79,27.5-12.1,36.87,3.51,9.64,16.07,16.06,36.45,19.62,54.75ZM1549.94,525.92c8.13,8.18,19.5,2.38,25.1-5.62,8.1-11.57,3.78-25.74-1.51-37.61-2.59-5.82-12.73-17.61-7.41-22.47,16.31-6.02,80.68-12.12,57.67-43.25-16.19-21.91-51.8-2.88-68.01,10.33-2.03.56-4.36.66-6.27-.3-2.57-1.3-6.54-23.88-7.99-28.88-2.27-7.84-12.82-38.31-19.38-41.32-8.22-3.77-19,9.53-21.61,16.43-5.06,13.37-1.57,28.16,3.57,40.89,2.41,5.96,9.1,15.32,10.43,20.61,2.02,8.07-4.84,6.36-9.08,7.67-15.27,4.7-48.08,18.91-49.91,36.94-1.39,13.68,5.68,17.35,18.32,15.93,14.11-1.58,43.7-19.76,55.52-15.99s11.41,37.45,20.56,46.65Z"/>
  <path class="st0" d="M809.22,357.66c7.16-.85,8.6,1.21,10.92,7.5,6.79,18.41,7.97,46.88,8.4,66.55,1.71,78.73-20.7,135.39-62.57,200.39-12.62,19.6-50.14,73.2-74.9,73.93-8.39.25-17.36-14.06-20.63-21.03-19.58-41.76-15.71-171.93,48.1-173,23.32-.39,29.45,19.11,33.22,38.13,8.1,3.87,10.08-.82,11.21-7.89,4.62-28.93-5.57-65.74-3.49-97.48,1.81-27.57,16.48-83.18,49.75-87.11ZM704.45,587.21c-10.4,1.63-11.58,23.75,2.02,22.39,12.79-1.28,10.63-24.37-2.02-22.39Z"/>
  <path class="st0" d="M1142.32,499.24c16.71-2.86,35.08,8.61,43.63,22.43,19.52,31.5-19.51,45.26-44.07,48.52-7.61,1.01-30,.41-34.41,3.66-2.17,1.6-3.11,4.24-2.06,6.84,2.34,5.8,7.1,3.2,11.57,4,8.78,1.57,17.73,19.83,25.02,26.14,26.3,22.79,69.59-6.12,104.7,22.6,30.41,24.88,18.05,73.16-26,70.02-21.49-1.53-86.38-17.91-102.96-30.29-30.24-22.58-33.47-77.35-24.49-111.13,5.31-19.95,26.73-58.96,49.06-62.78ZM1144.7,528.88c-8.1,1.47-7.84,15.87,2,15.26,9.5-.58,9-17.26-2-15.26Z"/>
  <path class="st0" d="M902.09,640.75c-3.54,22.42-20.46,40.95-39.89,51.91-35,19.75-79.16,1.52-102.56-27.97-.64-2.51,17.68-27.86,20.59-32.58,11.83-19.15,23.45-39.4,33.03-59.78,2.95-6.27,5.07-18.13,11.03-21.09,15.24-7.57,47.21-2.67,58.31,10.82,5.91,7.17-3.74,16.7-4.99,25.84-2.79,20.43,6.94,42.36,24.48,52.85ZM825.78,609.84c-6.32,1.93-6.49,15.55,2.43,17.4,14.76,3.07,14.2-22.47-2.43-17.4Z"/>
  <path class="st0" d="M1223.81,609.32c-4.79-34.91-1.19-83.47,35.39-100.28,26.41-12.14,53.63,3.86,39.51,33.56-6.3,13.25-24.42,25.93-27.04,39.59-3.97,20.73,11.61,34.35,30.76,23.62,16.37-9.17,34.01-56.1,56.79-37.29,20.86,17.22-2.29,70.89-18.45,86.34-17.73,16.95-42.19,15.8-64.96,12.54-1.71-5.93-1.5-11.93-3.43-17.99-6.54-20.53-28.65-34.98-48.57-40.08Z"/>
  <path class="st0" d="M901.53,624.65c-9-8.22-13.82-22.5-12.22-34.58.36-2.71,7.52-22.07,8.9-24.41,8.53-14.45,31.67-2.26,41.36,4.88,17.99,13.26,49.88,54.04,72.63,52.1,18.48-1.58,20.28-23.94,10.75-36.73-16.09-21.6-49.52-19.83-61.61-44.28-18.35-37.13,20.96-52.76,47.43-27.2,21.35,20.62,41.84,84.42,36.96,113.09-6.17,36.25-58.46,24.86-83.96,19.58-18.21-3.77-46.51-9.9-60.24-22.45Z"/>
  <path class="st0" d="M1401.69,508.74c15.1-2.6,22.88,11.89,21.71,25.3-.6,6.87-8.32,17.76-4.2,22.07,5.31,5.55,10.03-1.69,15.3-3.84,10.84-4.43,38.09-.35,47.61,6.37,12.19,8.61,4.78,26.8-9.6,29.26-13.86,2.37-23.33-8.33-37.52-5.39s-25.03,38.26-27.85,50.67c-2.45,10.77-2.4,22.1-6.88,32.38-9,20.67-29.36,17.59-38.54-.8-6.3-12.62-3.58-10.28,1.64-20.63,12.79-25.35,26.29-59.02,5.43-83.81,1.77-14.75,16.95-48.83,32.91-51.58Z"/>
  <path class="st0" d="M1056.97,634.58c3.85-24.74-2.97-49.51-9.37-73.16,8.25-28.45,22.31-59.15,26.87-88.39,3.53-22.65-.16-45.39,3.1-68.29,1.2-8.46,3.64-30.32,13.38-31.83,9.06-1.41,19.66-1.9,23.2,7.6,5.53,14.84,2.34,41.2-.39,56.85-6.7,38.46-22.42,82.33-32.65,120.83-5.49,20.64-9.94,50.83-17.3,69.55-1.14,2.91-3.25,6.81-6.83,6.84Z"/>
  <path class="st0" d="M339.93,475.94c-27.2-25.14,11.56-72.88,43.22-56.9,27.96,14.1,37.67,42.24,46.82,69.78,18.39,55.33,26.8,113.38,40.38,170.02-13.8,37.51-49.02,67.92-90.82,64.83-55.28-4.08-90.16-45.25-86.4-100.37,4.32-63.29,65.12-82.43,110.66-41.68,4.89,4.38,10.07,16.38,16.43,4.49-4.71-20.48-5.49-46.59-17.15-64.45-5.43-8.3-15.16-16.25-23.2-22.01-11.19-8.03-31.48-15.9-39.94-23.71ZM368.9,642.54c7.33-6.7,1.33-22.07-10.87-19.79-18.03,3.38-4.03,33.41,10.87,19.79Z"/>
  <path class="st0" d="M511.77,520.67c8.23-1.01,29.07,3.54,32.48,12.11,3.22,8.09-5.32,25.93-9.15,33.85-3.04,6.29-13.69,17.81-8.22,23.98,7.6,8.58,21.35,13.93,28.51,25.02,7.76,12.02,10.28,38.71,9.04,52.91-1.95,22.32-20.17,34.63-41.69,28.51-47.28-13.44-49.97-99.21-61.51-138.26.07-4.26,6.58-13.92,9.77-17,6.71-6.49,31.71-20.02,40.76-21.13ZM499.76,550.5c-15.47.3-19.2,23.48-2.6,22.29,14.43-1.03,15.94-22.56,2.6-22.29Z"/>
  <path class="st0" d="M1549.94,525.92c-9.16-9.2-8.81-42.91-20.56-46.65s-41.4,14.4-55.52,15.99c-12.64,1.42-19.71-2.26-18.32-15.93,1.84-18.03,34.65-32.24,49.91-36.94,4.24-1.31,11.1.4,9.08-7.67-1.33-5.29-8.02-14.65-10.43-20.61-5.14-12.73-8.63-27.52-3.57-40.89,2.61-6.9,13.39-20.2,21.61-16.43,6.56,3.01,17.11,33.47,19.38,41.32,1.45,5,5.42,27.58,7.99,28.88,1.91.97,4.24.87,6.27.3,16.21-13.21,51.82-32.24,68.01-10.33,23.01,31.14-41.36,37.23-57.67,43.25-5.32,4.86,4.82,16.66,7.41,22.47,5.28,11.87,9.61,26.03,1.51,37.61-5.6,8-16.97,13.8-25.1,5.62Z"/>
  <path d="M704.45,587.21c12.64-1.98,14.8,21.11,2.02,22.39-13.6,1.36-12.42-20.76-2.02-22.39Z"/>
  <path d="M1144.7,528.88c11-2,11.5,14.68,2,15.26-9.84.6-10.1-13.79-2-15.26Z"/>
  <path d="M825.78,609.84c16.63-5.07,17.19,20.48,2.43,17.4-8.92-1.86-8.76-15.48-2.43-17.4Z"/>
  <path d="M368.9,642.54c-14.9,13.63-28.91-16.41-10.87-19.79,12.2-2.29,18.2,13.08,10.87,19.79Z"/>
  <path d="M499.76,550.5c13.34-.26,11.83,21.26-2.6,22.29-16.6,1.19-12.87-21.99,2.6-22.29Z"/>
</svg>