<?xml version="1.0" encoding="UTF-8"?>
<svg id="_Слой_1" data-name="Слой_1" xmlns="http://www.w3.org/2000/svg" version="1.1" viewBox="0 0 1920 1920">
  <!-- Generator: Adobe Illustrator 30.5.1, SVG Export Plug-In . SVG Version: 2.1.4 Build 3)  -->
  <defs>
    <style>
      .st0 {
        display: none;
        fill: #fff;
      }
    </style>
  </defs>
  <path class="st0" d="M0,0h1920v1920H0V0ZM1448.58,1255.85c122.09-29.03,278.77-82.04,369.93-168.88,20.99-19.99,38.43-41.97,50.92-67.95,19.47-40.48,19.47-85.25.03-125.73-26.29-54.75-79.13-96.54-130.97-127.37-141.74-84.29-344.32-128.57-508.02-147.31-178.95-20.49-359.66-20.52-538.61-.13-163.34,18.61-363.98,62.39-505.94,145.46-51.43,30.09-104.11,71-131.87,124.02-21.83,41.7-23.11,88.97-2.61,131.4,24.36,50.44,71.14,89.89,118.42,119.54,151.99,95.33,378.43,141.38,556.54,158.86,233.67,22.94,493.34,12.51,722.17-41.91Z"/>
  <path d="M1448.58,1255.85c-228.83,54.42-488.5,64.85-722.17,41.91-178.11-17.48-404.55-63.53-556.54-158.86-47.28-29.65-94.06-69.1-118.42-119.54-20.5-42.43-19.22-89.7,2.61-131.4,27.76-53.02,80.44-93.93,131.87-124.02,141.97-83.07,342.6-126.85,505.94-145.46,178.95-20.39,359.66-20.36,538.61.13,163.71,18.75,366.28,63.03,508.02,147.31,51.84,30.83,104.68,72.62,130.97,127.37,19.44,40.48,19.44,85.25-.03,125.73-12.49,25.98-29.94,47.96-50.92,67.95-91.17,86.84-247.85,139.85-369.93,168.88ZM176.65,817.93c-20.15,16.76-37.36,34.11-51.64,55.43h717.02s105.13-246.77,105.13-246.77c-108.22.43-213.13,8.57-318.05,25.01-67.82,10.93-134.18,25.11-199.79,44.7-50.82,15.29-99.72,33.02-147.31,56.13-37.63,18.27-72.6,38.81-105.36,65.51ZM1692.8,781.5c-33.37-20.06-66.62-36.21-102.25-50.68-107.92-43.85-226.3-69.66-341.87-85.61-95.9-12.8-191.33-18.88-289.56-18.72l105.79,246.86h730.97c-10.96-16.96-24.15-30.15-38.04-43.64-20.1-18.38-41.29-33.42-65.04-48.21ZM645.13,968.25c10.65-5.02,19.29-15.67,18.65-27.94-1.43-27.44-49.24-37.78-76.23-42.36-32.7-5.56-64.9-8.7-98.02-9.33l-48.16-.92-264.56-.09c-4.22,0-7.47,2.89-7.47,7v92.39c0,3.94,3.33,7.28,7.39,7.28l205.06.26,38.82.09,47.89-.84,60.05-2.63c33.92-1.49,86.82-8.87,116.59-22.92ZM1163.23,988.27v-23.82c-.01-2.74-3.06-6.1-6.5-6.1h-246.28s-.05-64.26-.05-64.26c0-3.45-3.4-6.16-6.89-6.43l-160.95-.03c-3.46,0-6.88,3.17-6.88,6.5l-.02,93.39c0,3.76,2.81,6.76,6.87,6.76l207.64.31,89.25.61,116.42.31c3.8.01,7.39-3.39,7.39-7.25ZM1747.71,982.48l-57.48-20.09-43.11-12.88,35.7-7.09c11.74-2.33,27.35-9.81,27.72-20.86.88-26.51-85.12-30.83-114.37-31.56l-24.32-.61-23.41-1.25-317.91-.11c-3.07,0-5.91,3.35-5.91,6.12l-.02,94.66c0,3.73,2.91,6.77,6.86,6.77l162.33.04c3.59,0,6.45-3.85,6.46-6.69v-31.74s32.15.94,32.15.94c12.33,1.15,24.01,2.49,35.83,6.4l94.43,31.2h181.89c3.56.02,6.85-2.58,7.45-5.17.49-2.15-1.33-7.05-4.28-8.08ZM220.66,1126.21l355.07-115.64-467.03-.45c9.16,20.95,21.7,38.3,36.56,55,21.85,23.6,47.43,43.48,75.4,61.09ZM1811.9,1010.1l-481.78.45,364.84,119.14c47.24-30.12,94.4-67.92,116.94-119.59ZM1405.85,1238.74c55.12-12.63,108.06-28.15,160.88-47.79,41.29-15.84,81.17-33.35,120.05-56.72l-733.22-108.08-721.79,105.52c-1.16.72-.77,1.11.82,2.04,138.69,81.74,331.5,122.74,491.24,139.8,221.05,23.62,464.95,14.98,682.01-34.77Z"/>
  <path class="st0" d="M1405.85,1238.74c-217.07,49.75-460.96,58.38-682.01,34.77-159.74-17.06-352.55-58.07-491.24-139.8-1.58-.93-1.98-1.32-.82-2.04l721.79-105.52,733.22,108.08c-38.88,23.37-78.76,40.87-120.05,56.72-52.82,19.64-105.76,35.16-160.88,47.79Z"/>
  <path class="st0" d="M1692.8,781.5c23.74,14.79,44.93,29.83,65.04,48.21,13.89,13.48,27.08,26.68,38.04,43.64h-730.97s-105.79-246.86-105.79-246.86c98.23-.16,193.66,5.92,289.56,18.72,115.57,15.95,233.95,41.76,341.87,85.61,35.63,14.48,68.88,30.62,102.25,50.68Z"/>
  <path class="st0" d="M176.65,817.93c32.76-26.7,67.73-47.24,105.36-65.51,47.6-23.11,96.49-40.84,147.31-56.13,65.6-19.59,131.96-33.77,199.79-44.7,104.92-16.43,209.83-24.58,318.05-25.01l-105.13,246.77H125.01c14.28-21.31,31.5-38.66,51.64-55.42Z"/>
  <path class="st0" d="M1811.9,1010.1c-22.54,51.67-69.7,89.47-116.94,119.59l-364.84-119.14,481.78-.45Z"/>
  <path class="st0" d="M220.66,1126.21c-27.96-17.62-53.55-37.49-75.4-61.09-14.86-16.7-27.4-34.05-36.56-55l467.03.45-355.07,115.64Z"/>
  <path class="st0" d="M1747.71,982.48c2.95,1.03,4.77,5.93,4.28,8.08-.6,2.6-3.89,5.19-7.45,5.19h-181.89s-94.43-31.22-94.43-31.22c-11.82-3.91-23.5-5.25-35.83-6.4l-32.15-.94v31.74c0,2.84-2.87,6.69-6.46,6.69l-162.33-.04c-3.95,0-6.86-3.04-6.86-6.77l.02-94.66c0-2.77,2.84-6.12,5.91-6.12l317.91.11,23.41,1.25,24.32.61c29.25.73,115.25,5.05,114.37,31.56-.37,11.05-15.97,18.53-27.72,20.86l-35.7,7.09,43.11,12.88,57.48,20.09ZM1587.04,947.63l80.86-8.54c14.17-3,38.47-9.09,35.3-18.93-4.63-14.33-55.11-21.02-74.33-21.59l-109.55-3.22-163.77-.18-124.27.02v93.57s162.52.07,162.52.07l.05-38.36,33.32.88c16.38.43,31.83,2.96,47.3,8.1l88.69,29.45,181.08-.06-64.86-23.15c-30.12-10.75-60.18-15.22-92.33-18.07Z"/>
  <path class="st0" d="M645.13,968.25c-29.76,14.04-82.67,21.43-116.59,22.92l-60.05,2.63-47.89.84-38.82-.09-205.06-.26c-4.06,0-7.39-3.35-7.39-7.28v-92.39c0-4.11,3.24-7,7.46-7l264.56.09,48.16.92c33.12.63,65.32,3.77,98.02,9.33,26.99,4.58,74.79,14.93,76.23,42.36.64,12.26-8,22.91-18.65,27.94ZM647.52,958.76c8.59-5.9,12.46-17.28,7.1-25.62-22.48-34.99-147.86-36.41-194.29-38.82l-284.6-.31v93.7s218.41.27,218.41.27c46.6-.02,91.37-.55,137.53-3.72,32.2-2.21,91.85-9.03,115.84-25.49Z"/>
  <path class="st0" d="M1163.23,988.27c0,3.86-3.59,7.26-7.39,7.25l-116.42-.31-89.25-.61-207.64-.31c-4.06,0-6.87-3-6.87-6.76l.02-93.39c0-3.32,3.42-6.5,6.88-6.5l160.95.03c3.49.27,6.88,2.98,6.89,6.43l.05,64.25h246.28c3.44,0,6.49,3.36,6.49,6.1v23.82ZM1155.82,964.94l-252.04-.1-.03-70.74-161.44-.07.02,93.74,413.43.28.05-23.1Z"/>
  <path d="M1587.04,947.63c32.15,2.85,62.2,7.32,92.33,18.07l64.86,23.15-181.08.06-88.69-29.45c-15.47-5.14-30.91-7.67-47.3-8.1l-33.32-.88-.05,38.36-162.51-.07v-93.57s124.26-.02,124.26-.02l163.77.18,109.55,3.22c19.23.57,69.7,7.26,74.33,21.59,3.18,9.84-21.12,15.92-35.3,18.93l-80.86,8.54Z"/>
  <path d="M647.52,958.76c-24,16.47-83.65,23.28-115.84,25.49-46.16,3.17-90.93,3.7-137.53,3.72l-218.41-.27v-93.7s284.6.31,284.6.31c46.43,2.41,171.81,3.83,194.29,38.82,5.36,8.35,1.49,19.72-7.1,25.62Z"/>
  <polygon points="1155.82 964.94 1155.78 988.04 742.34 987.77 742.32 894.02 903.76 894.1 903.79 964.84 1155.82 964.94"/>
</svg>